<?xml version="1.0" encoding="utf-8"?>
<svg viewBox="198.217 147.77 36 36" width="36" height="36" xmlns="http://www.w3.org/2000/svg">
  <g transform="matrix(1, 0, 0, 1, -2.842170943040401e-14, 0)">
    <path d="M 234.217 165.77 C 234.217 175.711 226.158 183.77 216.217 183.77 C 206.276 183.77 198.217 175.711 198.217 165.77 C 198.217 155.829 206.276 147.77 216.217 147.77 C 226.158 147.77 234.217 155.829 234.217 165.77 Z M 216.217 162.77 C 213.907 162.77 212.464 165.27 213.619 167.27 C 214.155 168.198 215.145 168.77 216.217 168.77 C 218.526 168.77 219.97 166.27 218.815 164.27 C 218.279 163.342 217.289 162.77 216.217 162.77 Z" style="fill: rgb(255, 183, 197);"/>
    <path d="M 211.505 165.246 C 211.615 164.172 212.089 163.168 212.848 162.4 L 204.903 154.456 C 202.332 157.023 200.715 160.391 200.319 164.003 L 211.505 165.246 Z M 220.93 166.294 C 220.819 167.368 220.345 168.372 219.587 169.14 L 227.531 177.084 C 230.102 174.517 231.719 171.149 232.115 167.537 L 220.93 166.294 Z" style="fill: rgb(252, 142, 172);"/>
    <path d="M 216.744 170.482 L 217.995 181.665 C 221.602 181.267 224.966 179.651 227.531 177.083 L 219.587 169.139 C 218.819 169.897 217.816 170.37 216.744 170.482 Z M 215.721 161.055 L 214.542 149.859 C 210.896 150.239 207.492 151.862 204.903 154.457 L 212.847 162.401 C 213.622 161.636 214.637 161.161 215.721 161.055 Z" style="fill: rgb(255, 215, 233);"/>
  </g>
</svg>